<svg id="Layer_1" xmlns="http://www.w3.org/2000/svg" viewBox="0 0 1372.4 126.2"><style>.st0{fill:#005a57}</style><path class="st0" d="M197.4 35.8L184.5 22C139.6 60.9 72.9 116.7 50.3 125H79c19.2-7.2 73-50.7 118.4-89.2zm-21.1-22.5L163.5 0C109.4 46.9 21.4 118.3 0 125h30.8c22.6-10.1 91.8-66.3 145.5-111.7zm64.1 68.2l-12.5-13.3c-33.6 27.5-65.2 51.6-79.1 56.8h28.7c11.6-4.3 35.7-21.8 62.9-43.5zM219 58.6l-12.5-13.3c-43 36.3-90.2 74-107.3 79.7H128c14.7-5 52.8-34.6 91-66.4z"/><path d="M276.4 61.6c0-9.1-2.4-11.1-11.8-11v-3.4c3.6 0 14.3-.5 19.6-.7 6.7-.2 13.1-.2 17.8-.2 18.8 0 32.4 3.4 40 11 7.7 7.7 10.7 17.2 10.7 26.6 0 18.3-12.8 41-49.4 41h-38.8v-3.4c10.6 0 11.8-1.7 11.8-10.1V61.6zm13.8 50.8c0 7.9 1.1 9 9.2 9 15 0 22.7-3.2 28.4-9 7.6-7.6 9.7-18.1 9.7-26.8 0-9-2-19.1-9.6-26.7-6.2-6.2-14.1-9.1-28.7-9.1-2.1 0-6 0-9.1.2v62.4zm117.7 6.1c-5.9 5.2-10.6 7.7-14.7 7.7-4.7 0-7.1-2.6-7-7.7-6 4.6-7.4 7.7-14.7 7.7-7.6 0-13-5-13-12 0-3.5 1.1-6.5 3.2-8.6 2.5-2.5 6.2-3.7 10.6-5 4.4-1.4 9.2-2.9 13.8-6.1v-4c0-8.7-2.6-12.6-8.5-12.6-3.9 0-7 2.4-7 5.2 0 1.1.6 2.6 1.2 3.7l-11.3 4.6c-1.1-1.5-1.5-2.7-1.5-3.9 0-6.1 11.6-14.3 22.6-14.3 10.2 0 16.3 5 16.3 14v27.9c0 2.6.7 4.2 2.6 4.2 1.5 0 3.5-1 6.1-3.2l1.3 2.4zm-21.7-20.3C372.9 106 371 106.8 371 113c0 4.4 2.4 7.4 5.9 7.4 1.9 0 3.1-.7 4.5-1.7 1.2-1 2.2-1.7 4.9-3.5v-17zm24.6-16.9v-2.5l17.1-5.5h3.1v12.5h.2c4.9-9.2 7.7-12.5 11.1-12.5 1.9 0 4.2 1.6 11.7 3.1l-4.1 10.2c-5.6-1.1-9.2-3.5-10.8-3.5-2.9 0-5.5 2.6-8.1 8v20.7c0 9 2.2 10 12.5 9.8v3.1h-32.7v-3.1c5.7 0 8.4-2 8.4-9.3V84.5l-8.4-3.2zm83 34.4c-3.6 8-9.5 10.5-15.6 10.5-8.4 0-14.3-5-14.3-16.3V81.2h-5.6v-2.4c7.6-4 12-9.6 14.5-18.1h3v14h18.1l-2.7 6.5h-15.3v27.2c0 6.2 1.9 11.5 7.4 11.5 3.5 0 5.6-1.7 8-6.2l2.5 2zm6.2-36.9l16.8-5.5h3.1v10c10.3-7 17.3-10 22.9-10 6.1 0 10 3.4 11.6 10.3 10.3-7.1 17.8-10.3 23.3-10.3 8.2 0 12.5 6.4 12.5 17.1v21.3c0 6.1 1 10 8.2 10v3.1h-28.2v-3.1c5 0 8.1-1.9 8.1-8.9v-22c0-5.6-2-10.3-7.6-10.3-4.1 0-9.5 2.4-15.7 7v24.3c0 7.7 2.4 10 8.4 10v3.1h-28.3v-3.1c5.2 0 8.1-1.9 8.1-9v-21c0-5.9-1-11.3-7.6-11.3-4.2 0-9.2 2.2-15.7 7V112c0 7.7 2.2 9.7 8.2 9.7v3.1H500v-3.1c5.9 0 8.1-2.7 8.1-9.2V90.6c0-6.9-.2-7.2-8.1-8.6v-3.2zm126.8-5.4c21.1 0 28.9 15.2 28.9 26.3 0 15.2-12.1 26.6-28.4 26.6-17.7 0-28.9-10.5-28.9-26.8 0-15.9 11.1-26.1 28.4-26.1zm2.4 48.8c8.4 0 13.8-7 13.8-18.4 0-15-8.2-26.4-17.8-26.4-8.5 0-14.1 7.2-14.1 18.5 0 14.7 8 26.3 18.1 26.3zm74.8 4h-2.9v-9.5c-11.2 7.4-16.2 9.5-21.8 9.5-9.1 0-13.3-6.5-13.3-16.1V88c0-6.4-.2-6.6-7.7-8.1v-2.7l16.5-3.7h3.1v33.4c0 6.7 2.4 11.8 9.6 11.8 3.5 0 7.2-1.7 13.7-6.2V86.8c0-5.2-.7-6.4-10.7-7.5v-3l19.4-3h3.1V113c0 5.1.5 6 3.1 6 1.2 0 2.6-.2 5.2-.7v3.1l-17.3 4.8zm54.6-10.5c-3.6 8-9.5 10.5-15.6 10.5-8.4 0-14.3-5-14.3-16.3V81.2H723v-2.4c7.6-4 12-9.6 14.5-18.1h3v14h18.1l-2.7 6.5h-15.3v27.2c0 6.2 1.9 11.5 7.4 11.5 3.5 0 5.6-1.7 8-6.2l2.6 2zm37 6c8 0 9.5-1.9 9.5-24.6 0-12.5-3.1-17.2-9.3-17.2-3.7 0-8.4 1.6-14.7 5.2v27.4c0 6.7 2.4 9.1 8.4 9.1v3.1h-28.3v-3.1c5.5 0 8.1-2 8.1-10.1V56c0-3.4-.4-5.4-8.1-6.5v-3.1l16.8-5.2h3.1v40.6c8.5-5.5 16.6-8.5 22.7-8.5 8.5 0 13.2 5.4 13.2 20.7 0 7.2-.9 15.1-.9 19.7 0 6.1 2.7 8 9.6 8v3.1h-30v-3.1zm32.4-34h27V95h-27v-7.3zm53.6 22.9c0 7.2 1.1 10.6 11.1 10.8v3.4h-36v-3.4c10.1-.6 11.1-3.4 11.1-11.7V63.3c0-9.4-1.4-12.5-11.1-12.6v-3.4h36v3.4c-9.3.4-11.1 2.4-11.1 13.2v18.6h45V63.8c0-10.1-1.2-12.7-11.5-13.1v-3.4h36.7v3.4c-9.8.5-11.3 2.6-11.3 12.2v47c0 8.9 1.4 11 11.3 11.6v3.4h-36.7v-3.4c9.7-.4 11.5-3 11.5-11.8V88.1h-45v22.5zm76.5-33.4l18.8-5.2h2.7v39.5c0 8.2 1.7 10.2 9.1 10.2v3.1H958v-3.1c7 .2 9.7-2.1 9.7-8.9V85c0-2.6-.2-3.7-9.7-5v-2.8zm15-33.1c4.5 0 7.6 2.6 7.6 6.5 0 4-3.2 6.7-8 6.7-4.5 0-7.6-2.6-7.6-6.6 0-4 3.1-6.6 8-6.6zm53.7 71.6c-3.6 8-9.5 10.5-15.6 10.5-8.4 0-14.3-5-14.3-16.3V81.2h-5.6v-2.4c7.6-4 12-9.6 14.5-18.1h3v14h18.1l-2.7 6.5h-15.3v27.2c0 6.2 1.9 11.5 7.4 11.5 3.5 0 5.6-1.7 8-6.2l2.5 2zm50.6-2.8c-6.7 8.9-14.8 13.3-24.1 13.3-13.7 0-22.9-9.8-22.9-24.4 0-16.8 12.7-28.4 31-28.4 9.8 0 16.2 3.4 16.2 8.6 0 2.9-2.2 5-5.4 5-6.7 0-9.5-9.6-16.1-9.6-7.7 0-13.5 9.2-13.5 21.1 0 13 6.1 21.8 15.2 21.8 6.2 0 11-2.6 17.1-9.5l2.5 2.1zm36.3 8.8c8 0 9.5-1.9 9.5-24.6 0-12.5-3.1-17.2-9.3-17.2-3.7 0-8.4 1.6-14.7 5.2v27.4c0 6.7 2.4 9.1 8.4 9.1v3.1h-28.3v-3.1c5.5 0 8.1-2 8.1-10.1V56c0-3.4-.4-5.4-8.1-6.5v-3.1l16.8-5.2h3.1v40.6c8.5-5.5 16.6-8.5 22.7-8.5 8.5 0 13.2 5.4 13.2 20.7 0 7.2-.9 15.1-.9 19.7 0 6.1 2.7 8 9.6 8v3.1h-30v-3.1zm78.4-8.8c-6.7 8.9-14.8 13.3-24.1 13.3-13.7 0-22.9-9.8-22.9-24.4 0-16.8 12.7-28.4 31-28.4 9.8 0 16.2 3.4 16.2 8.6 0 2.9-2.2 5-5.4 5-6.7 0-9.5-9.6-16.1-9.6-7.7 0-13.5 9.2-13.5 21.1 0 13 6.1 21.8 15.2 21.8 6.2 0 11-2.6 17.1-9.5l2.5 2.1zm32.3-39.5c21.1 0 28.9 15.2 28.9 26.3 0 15.2-12.1 26.6-28.4 26.6-17.7 0-28.9-10.5-28.9-26.8 0-15.9 11.1-26.1 28.4-26.1zm2.3 48.8c8.4 0 13.8-7 13.8-18.4 0-15-8.2-26.4-17.8-26.4-8.5 0-14.1 7.2-14.1 18.5.1 14.7 8 26.3 18.1 26.3zm78.8-9.3c-6.7 8.9-14.8 13.3-24.1 13.3-13.7 0-22.9-9.8-22.9-24.4 0-16.8 12.7-28.4 31-28.4 9.8 0 16.2 3.4 16.2 8.6 0 2.9-2.2 5-5.4 5-6.7 0-9.5-9.6-16.1-9.6-7.7 0-13.5 9.2-13.5 21.1 0 13 6.1 21.8 15.2 21.8 6.2 0 11-2.6 17.1-9.5l2.5 2.1zm36.8 8.8c3.7 0 5-.6 5-2.5 0-1-.6-2.4-2-3.7l-17.6-18.3v15.5c0 6.7 2.2 9.1 9.1 9.1v3.1h-29v-3.1c5.2 0 8.1-2 8.1-8.5V57.4c0-5.2-.7-6.6-8.1-7.9v-3.1l16.8-5.2h3.1v54.2l14.6-11.1c3.4-2.5 4.5-3.7 4.5-4.6 0-1.4-1.6-1.9-6.5-1.9v-3.1h27.2v3.1c-7.5 0-12 2.1-20.2 8.4l-9 6.9 22.1 23.4c2.6 2.7 7.6 5.2 12 5.2v3.1h-30v-3.1z"/></svg>